<svg width="418" height="326" viewBox="0 0 418 326" fill="none" xmlns="http://www.w3.org/2000/svg">
<path d="M114.5 77L62.5 206H80.5L132 77H206.5C199.437 68.3023 194.541 64.5533 184 60H139.5L159 11.5H141L121.5 60H73.5L66.5 77H114.5Z" fill="#870000" stroke="#870000"/>
<path d="M236 183V204C252.067 201.5 261.624 197.855 279 190L309.5 165.5C319.916 153.713 325.195 145.989 332.5 128C337.793 112.289 340.469 103.207 341.5 83.5L344.5 66.5C346.82 58.9732 348.79 55.2173 353 49L364.5 37H347.5C335.831 31.4437 329.959 31.3823 322.5 45L317.5 62.5C314.227 68.721 312.583 72.1265 305.5 80C301.645 71.7098 298.284 67.4647 290.5 60.5C284.204 54.1877 280.319 51.2068 273 46.5C262.475 40.6239 256.865 37.9858 248.5 37C237.255 34.6478 230.617 34.0135 218 34.5C235.322 48.4386 243.862 57.4177 255 77.5C261.279 92.5043 263.353 101.917 263 121.5C262.691 134.256 261.224 141.647 255 155.5C250.354 166.222 246.138 172.243 236 183Z" fill="#EFB700" stroke="#EFB700"/>
<path d="M242 130.5C241.126 145.279 239.91 153.421 235.5 167.5C240.864 162.194 243.573 158.549 247.5 150C250.795 144.176 252.159 139.763 254 130.5C255.5 120.398 255.533 114.18 254 102C252.88 95.527 251.567 91.4407 247.5 83C244.144 76.3916 241.633 72.2104 235.5 63.5C229.713 55.8964 225.847 51.7039 216.5 44.5C204.416 45.29 199.307 45.7292 195.5 46.5C189.275 47.6502 186.356 48.3755 183.5 50C196.008 57.6589 203.128 62.3834 216.5 73.5C224.533 81.5279 228.795 87.0212 235.5 100.5C238.84 107.889 240.433 113.546 242 130.5Z" fill="#D39F2F" stroke="#D39F2F"/>
<path d="M189.5 289C198.188 294.193 202.829 298.612 210.5 310.5L221 296C231.676 288.072 238.4 285.364 252.5 285.5C264.918 286.309 271.732 287.488 283.5 291.5C299.544 297.154 309.506 300.143 332.5 304.5C346.035 309.051 355.291 309.989 373 310.5C382.726 309.719 387.798 309.043 395.5 307C389.68 292.888 386.578 284.91 381.5 270.5C377.588 271.364 375.108 271.495 370.5 271.5C373.187 262.479 374.071 257.439 374.5 248.5C374.61 241.092 374.204 237.292 371.5 232C364.601 237.632 360.189 240.71 351 246C342.01 250.509 336.292 252.572 325 255.5C315.466 256.686 309.497 257.142 297.5 257.5C294.16 257.028 292.747 256.644 292 255.5C300.602 254.1 304.454 252.788 310.5 250C322.217 244.504 327.595 240.78 336 233.5C344.796 224.649 349.424 218.984 356 205C359.176 193.156 360.199 185.507 361 170.5C361.192 161.34 360.519 155.801 358.5 145.5C354.601 133.339 351.457 127.513 345 118C338.557 136.943 333.463 146.878 322 163.5C323.321 174.43 323.353 180.456 322 191L316.5 209C309.062 219.452 304.152 225.005 292 233.5C280.346 239.194 273.626 241.758 260.5 242.5C255.229 243.685 251.252 243.661 242.5 242.5C232.622 237.443 229.473 233.372 226 225V105L215.5 85H167L171.5 95.5H185C188.504 97.484 190.245 99.2694 192.5 105V167.5L157.5 85H138L74.5 240C68.388 246.272 62.0109 247.906 47 248.5L43.5 256.5L116 257.5V247C102.143 246.304 98.1249 241.587 98 225C102.416 218.214 104.07 214.009 107 206.5H161.5L155.5 191H112.5L140.5 126L181.5 230.5C180.973 237.205 179.997 240.896 173.5 247L155.5 248.5C143.543 250.694 136.827 251.928 74.5 271.5C58.0505 273.129 49.6961 273.308 38.5 270.5L25.5 307C37.7745 309.873 49.3666 310.181 74.5 309.5C80.7212 308.546 83.5067 308.249 98 304.5C107.552 302.037 113.451 300.361 126.5 296C144.172 289.27 151.554 287.336 162.5 285.5C174.366 283.718 180.112 284.879 189.5 289Z" fill="#061573"/>
<path d="M44.5 281.5L37.5 299.5H64.5C74.1384 298.874 78.9129 298.237 85 296C96.9643 294.247 101.009 293.059 109 291C121.721 286.711 127.007 285.051 133 283.5C143.048 279.654 147.84 278.37 155.5 277C164.642 274.704 168.938 274.272 175 275C182.636 275.359 185.871 276.467 191 279C199.947 284.059 203.908 288.141 210 296C216.886 286.757 221.371 283.801 229.5 279C237.618 275.774 242.353 275.064 251 275L251.103 275.003C259.335 275.23 263.982 275.359 273 279C284.066 281.511 290.321 283.723 301.5 288C315.208 293.029 320.089 294.494 326.5 296C337.384 299.373 345.237 299.51 358.5 300.5C369.53 301.156 374.249 300.598 382.5 299.5L375 281.5L367.5 282.5C361.096 283.019 357.426 283.133 350.5 282.5L340.5 281.5C333.826 279.098 327.909 277.154 318.5 274C302.679 270.344 298.257 268.233 288 264.5C278.133 260.667 272.842 259.559 263.5 258C254.486 256.61 249.818 256.214 243 257C234.952 257.688 230.789 258.785 224 262L210 270.5C205.315 266.831 202.548 264.9 197 262C188.808 258.8 183.976 257.684 175 257C163.846 257.389 158.205 258.037 150 260.5C143.222 261.131 136.272 263.227 122 268C108.904 272.736 102.781 274.633 93.5 277C85.0341 278.981 79.3519 279.874 69.4766 281.425L69 281.5H44.5Z" fill="white"/>
<path d="M285.751 278.899L287.862 270.431L292.973 271.705L292.746 272.615L288.661 271.597L287.948 274.458L291.768 275.41L291.541 276.32L287.721 275.367L287.003 278.245L291.155 279.28L290.928 280.19L285.751 278.899ZM299.354 275.545L295.422 281.311L294.43 281.063L293.665 274.127L294.723 274.39L295.215 279.889L295.281 279.905L298.296 275.281L299.354 275.545ZM300.697 282.784C300.295 282.684 299.949 282.517 299.658 282.283C299.369 282.047 299.164 281.76 299.043 281.423C298.923 281.082 298.914 280.706 299.017 280.292C299.108 279.928 299.253 279.651 299.453 279.461C299.653 279.268 299.89 279.136 300.162 279.067C300.434 278.997 300.723 278.966 301.028 278.975C301.337 278.982 301.643 279.003 301.948 279.038C302.346 279.084 302.668 279.125 302.914 279.16C303.164 279.193 303.351 279.191 303.477 279.155C303.606 279.12 303.69 279.024 303.729 278.867L303.738 278.834C303.839 278.426 303.807 278.081 303.64 277.799C303.476 277.518 303.169 277.322 302.72 277.21C302.254 277.094 301.863 277.105 301.548 277.243C301.232 277.381 300.992 277.552 300.827 277.757L299.983 277.195C300.244 276.85 300.54 276.605 300.869 276.459C301.202 276.31 301.543 276.234 301.892 276.231C302.245 276.225 302.581 276.262 302.901 276.341C303.105 276.392 303.333 276.476 303.585 276.591C303.841 276.705 304.074 276.867 304.285 277.078C304.499 277.289 304.651 277.565 304.742 277.907C304.832 278.249 304.815 278.672 304.689 279.176L303.645 283.361L302.67 283.117L302.884 282.257L302.834 282.245C302.734 282.366 302.587 282.486 302.393 282.605C302.2 282.724 301.961 282.806 301.677 282.852C301.393 282.899 301.067 282.876 300.697 282.784ZM301.065 281.944C301.451 282.041 301.795 282.046 302.097 281.96C302.403 281.875 302.653 281.73 302.847 281.524C303.045 281.318 303.177 281.083 303.243 280.819L303.466 279.925C303.412 279.965 303.309 279.988 303.159 279.994C303.011 279.998 302.843 279.993 302.653 279.978C302.467 279.961 302.286 279.942 302.11 279.921C301.937 279.898 301.796 279.881 301.688 279.869C301.426 279.839 301.175 279.833 300.936 279.853C300.701 279.87 300.497 279.935 300.326 280.047C300.158 280.158 300.043 280.337 299.981 280.585C299.896 280.924 299.958 281.212 300.165 281.448C300.376 281.682 300.676 281.847 301.065 281.944ZM307.355 280.228L306.402 284.048L305.427 283.805L307.01 277.454L307.953 277.689L307.705 278.681L307.788 278.702C308.017 278.416 308.308 278.214 308.66 278.094C309.013 277.971 309.429 277.969 309.908 278.089C310.338 278.196 310.693 278.378 310.971 278.635C311.25 278.889 311.435 279.216 311.526 279.616C311.617 280.014 311.595 280.483 311.461 281.023L310.454 285.058L309.479 284.815L310.468 280.846C310.593 280.347 310.56 279.926 310.37 279.583C310.181 279.237 309.861 279.008 309.409 278.895C309.097 278.817 308.802 278.816 308.523 278.889C308.247 278.964 308.006 279.113 307.801 279.337C307.596 279.562 307.447 279.858 307.355 280.228ZM314.174 288.656C313.703 288.539 313.313 288.377 313.004 288.171C312.695 287.968 312.451 287.74 312.274 287.488C312.099 287.24 311.973 286.989 311.895 286.735L312.809 286.383C312.868 286.521 312.947 286.681 313.045 286.864C313.142 287.049 313.294 287.226 313.501 287.395C313.71 287.567 314.006 287.701 314.389 287.796C314.901 287.924 315.355 287.905 315.751 287.74C316.146 287.576 316.41 287.228 316.542 286.699L316.864 285.409L316.781 285.389C316.68 285.486 316.543 285.604 316.368 285.742C316.196 285.878 315.971 285.982 315.693 286.053C315.418 286.122 315.074 286.105 314.66 286.002C314.148 285.874 313.718 285.638 313.37 285.294C313.025 284.95 312.792 284.517 312.671 283.995C312.552 283.473 312.575 282.882 312.74 282.22C312.902 281.57 313.158 281.032 313.507 280.606C313.856 280.178 314.268 279.883 314.742 279.72C315.217 279.554 315.722 279.538 316.256 279.671C316.67 279.774 316.981 279.925 317.189 280.123C317.401 280.32 317.549 280.521 317.636 280.727C317.725 280.931 317.792 281.097 317.837 281.225L317.936 281.25L318.187 280.241L319.13 280.476L317.501 287.009C317.365 287.554 317.13 287.967 316.797 288.247C316.466 288.531 316.072 288.7 315.616 288.757C315.162 288.816 314.682 288.783 314.174 288.656ZM315.011 285.158C315.403 285.256 315.756 285.249 316.071 285.137C316.385 285.025 316.655 284.818 316.88 284.517C317.104 284.216 317.275 283.831 317.391 283.362C317.506 282.905 317.537 282.484 317.487 282.099C317.436 281.715 317.301 281.39 317.08 281.124C316.859 280.858 316.551 280.676 316.154 280.577C315.74 280.474 315.369 280.493 315.042 280.633C314.716 280.775 314.441 281.005 314.215 281.323C313.992 281.642 313.827 282.017 313.72 282.447C313.61 282.888 313.581 283.295 313.635 283.669C313.691 284.04 313.832 284.356 314.057 284.617C314.285 284.876 314.603 285.056 315.011 285.158ZM321.963 288.068C321.351 287.916 320.856 287.649 320.48 287.268C320.107 286.885 319.861 286.42 319.743 285.872C319.629 285.323 319.652 284.722 319.814 284.072C319.977 283.421 320.238 282.878 320.599 282.441C320.963 282.001 321.394 281.696 321.89 281.524C322.39 281.35 322.927 281.335 323.5 281.478C323.831 281.56 324.144 281.697 324.439 281.887C324.734 282.078 324.983 282.33 325.186 282.644C325.389 282.956 325.519 283.333 325.575 283.778C325.631 284.222 325.585 284.741 325.438 285.333L325.335 285.747L320.439 284.526L320.649 283.683L324.553 284.656C324.642 284.298 324.65 283.96 324.577 283.643C324.506 283.327 324.36 283.055 324.139 282.827C323.92 282.6 323.635 282.442 323.282 282.354C322.893 282.257 322.533 282.27 322.201 282.392C321.872 282.512 321.594 282.706 321.366 282.974C321.138 283.243 320.981 283.552 320.893 283.902L320.753 284.464C320.634 284.944 320.615 285.371 320.697 285.746C320.783 286.118 320.953 286.429 321.207 286.677C321.462 286.922 321.787 287.093 322.181 287.192C322.438 287.256 322.678 287.278 322.903 287.257C323.131 287.235 323.339 287.17 323.527 287.062C323.715 286.951 323.879 286.795 324.016 286.595L324.893 287.095C324.714 287.39 324.477 287.63 324.182 287.814C323.888 287.995 323.552 288.11 323.174 288.16C322.796 288.206 322.393 288.176 321.963 288.068ZM329.197 280.737L327.086 289.205L326.11 288.962L328.221 280.494L329.197 280.737ZM328.873 289.651L330.456 283.3L331.432 283.543L329.849 289.894L328.873 289.651ZM331.216 282.365C331.026 282.317 330.878 282.212 330.773 282.048C330.67 281.885 330.641 281.712 330.687 281.53C330.732 281.348 330.838 281.209 331.006 281.113C331.176 281.018 331.356 280.994 331.546 281.042C331.736 281.089 331.883 281.194 331.986 281.358C332.091 281.522 332.121 281.695 332.076 281.876C332.031 282.058 331.923 282.197 331.753 282.292C331.585 282.388 331.407 282.412 331.216 282.365ZM334.183 291.115C333.61 290.972 333.141 290.71 332.776 290.33C332.414 289.949 332.173 289.484 332.053 288.933C331.935 288.382 331.958 287.779 332.122 287.123C332.287 286.461 332.551 285.914 332.913 285.48C333.279 285.047 333.711 284.748 334.209 284.582C334.71 284.417 335.247 284.406 335.82 284.549C336.393 284.692 336.861 284.954 337.223 285.334C337.588 285.715 337.829 286.182 337.945 286.735C338.065 287.289 338.042 287.896 337.877 288.558C337.714 289.214 337.449 289.757 337.085 290.187C336.722 290.618 336.291 290.916 335.79 291.081C335.292 291.247 334.756 291.258 334.183 291.115ZM334.402 290.239C334.837 290.347 335.223 290.325 335.56 290.172C335.897 290.019 336.178 289.777 336.404 289.447C336.63 289.116 336.796 288.739 336.901 288.315C337.007 287.89 337.038 287.478 336.995 287.077C336.951 286.677 336.817 286.329 336.592 286.033C336.367 285.737 336.037 285.534 335.602 285.426C335.166 285.317 334.779 285.341 334.442 285.497C334.104 285.653 333.822 285.897 333.596 286.23C333.369 286.563 333.203 286.942 333.097 287.366C332.992 287.791 332.961 288.202 333.005 288.599C333.05 288.997 333.185 289.342 333.41 289.636C333.635 289.929 333.966 290.13 334.402 290.239ZM341.99 292.921L344.102 284.453L346.963 285.167C347.627 285.332 348.14 285.588 348.502 285.933C348.868 286.275 349.102 286.675 349.205 287.131C349.308 287.587 349.297 288.065 349.173 288.563C349.048 289.062 348.833 289.49 348.528 289.848C348.225 290.205 347.832 290.453 347.35 290.59C346.868 290.725 346.298 290.71 345.639 290.546L343.588 290.035L343.815 289.125L345.833 289.628C346.288 289.741 346.673 289.754 346.988 289.666C347.302 289.577 347.555 289.415 347.746 289.178C347.94 288.94 348.079 288.651 348.164 288.312C348.248 287.973 348.261 287.654 348.2 287.355C348.143 287.057 347.994 286.797 347.753 286.576C347.514 286.352 347.163 286.183 346.703 286.068L344.9 285.619L343.016 293.177L341.99 292.921ZM352.336 286.506L350.225 294.974L349.249 294.731L351.36 286.263L352.336 286.506ZM354.642 296.216C354.03 296.064 353.536 295.797 353.159 295.416C352.786 295.033 352.541 294.568 352.423 294.02C352.308 293.47 352.332 292.87 352.494 292.22C352.656 291.569 352.917 291.025 353.278 290.588C353.642 290.149 354.073 289.844 354.57 289.672C355.07 289.498 355.606 289.482 356.18 289.625C356.511 289.708 356.823 289.844 357.118 290.035C357.413 290.226 357.662 290.478 357.865 290.792C358.069 291.104 358.198 291.481 358.254 291.926C358.311 292.37 358.265 292.889 358.117 293.481L358.014 293.895L353.118 292.674L353.329 291.831L357.232 292.804C357.321 292.446 357.329 292.108 357.256 291.791C357.186 291.475 357.04 291.203 356.818 290.975C356.6 290.748 356.314 290.59 355.961 290.502C355.573 290.405 355.212 290.418 354.88 290.54C354.552 290.66 354.273 290.854 354.045 291.122C353.818 291.39 353.66 291.7 353.573 292.05L353.432 292.612C353.313 293.092 353.294 293.519 353.376 293.894C353.462 294.266 353.632 294.577 353.887 294.824C354.142 295.07 354.466 295.241 354.86 295.34C355.117 295.403 355.357 295.425 355.582 295.405C355.81 295.383 356.018 295.318 356.206 295.21C356.395 295.098 356.558 294.943 356.696 294.743L357.572 295.243C357.393 295.538 357.157 295.777 356.862 295.962C356.568 296.143 356.231 296.258 355.853 296.307C355.476 296.354 355.072 296.323 354.642 296.216ZM360.717 293.532L359.765 297.353L358.789 297.11L360.372 290.759L361.315 290.994L361.068 291.986L361.15 292.007C361.38 291.721 361.67 291.518 362.022 291.398C362.375 291.275 362.791 291.274 363.271 291.393C363.701 291.501 364.055 291.683 364.334 291.939C364.613 292.194 364.798 292.521 364.888 292.921C364.98 293.318 364.958 293.787 364.823 294.328L363.817 298.363L362.841 298.12L363.831 294.151C363.955 293.652 363.923 293.231 363.733 292.888C363.544 292.542 363.223 292.313 362.771 292.2C362.46 292.122 362.164 292.12 361.885 292.194C361.609 292.269 361.368 292.418 361.163 292.642C360.958 292.866 360.809 293.163 360.717 293.532ZM368.147 299.583C367.574 299.44 367.105 299.179 366.74 298.798C366.378 298.418 366.137 297.952 366.017 297.401C365.899 296.85 365.922 296.247 366.086 295.591C366.251 294.93 366.515 294.382 366.877 293.948C367.243 293.515 367.675 293.216 368.173 293.05C368.674 292.885 369.211 292.874 369.784 293.017C370.358 293.16 370.825 293.422 371.187 293.802C371.552 294.183 371.793 294.65 371.91 295.203C372.029 295.757 372.006 296.365 371.841 297.026C371.678 297.682 371.414 298.225 371.049 298.655C370.687 299.086 370.255 299.384 369.754 299.549C369.256 299.715 368.72 299.726 368.147 299.583ZM368.366 298.707C368.801 298.815 369.187 298.793 369.524 298.64C369.861 298.487 370.142 298.245 370.368 297.915C370.594 297.585 370.76 297.207 370.866 296.783C370.971 296.358 371.003 295.946 370.959 295.546C370.915 295.145 370.781 294.797 370.556 294.501C370.331 294.205 370.001 294.003 369.566 293.894C369.13 293.785 368.744 293.809 368.406 293.965C368.069 294.121 367.787 294.365 367.56 294.698C367.334 295.031 367.167 295.41 367.062 295.834C366.956 296.259 366.925 296.67 366.969 297.067C367.014 297.465 367.149 297.81 367.374 298.104C367.6 298.397 367.93 298.598 368.366 298.707Z" fill="#1A52BA"/>
</svg>
