<svg width="98" height="65" viewBox="0 0 98 65" fill="none" xmlns="http://www.w3.org/2000/svg">
<path d="M32.0161 1.50844L1.01611 30.0084C0.58749 30.7936 0.448902 31.2322 0.516113 32.0084C0.454939 33.1386 0.601171 33.6635 1.01611 34.5084L31.5161 63.0084C33.5938 64.1568 34.7919 64.3573 37.0161 63.5084C38.5356 62.7471 39.2132 62.1147 40.0161 60.5084C40.932 58.8214 40.7938 57.8255 40.0161 56.0084L21.0161 38.5084H93.0161C96.0368 38.4767 96.9021 37.7007 97.0161 35.0084V28.0084C96.2117 26.476 95.3547 25.9232 93.0161 25.5084H21.0161L39.5161 9.00844C40.0161 8.00848 40.153 6.64714 39.5161 4.50848L36.5161 1.00844C34.752 0.220885 33.7749 0.318956 32.0161 1.50844Z" fill="black" stroke="black"/>
</svg>
